Coordinates
version=1
nRows=23
nColumns=30
inDegrees=yes

Units are S.I. units (second, meters, Newtons, ...)
Angles are in degrees.

endheader
time	floatyaw	floatroll	floatpitch	floatx	floaty	floatz	pro_sup_l	deviation_l	flexion_l	cmc_flexion_l	cmc_abduction_l	mp_flexion_l	ip_flexion_l	2mcp_flexion_l	2mcp_abduction_l	2pm_flexion_l	2md_flexion_l	3mcp_flexion_l	3mcp_abduction_l	3pm_flexion_l	3md_flexion_l	4mcp_flexion_l	4mcp_abduction_l	4pm_flexion_l	4md_flexion_l	5mcp_flexion_l	5mcp_abduction_l	5pm_flexion_l	5md_flexion_l
0.005000	-160.147433	-5.066637	-73.570646	-0.061302	-0.106297	-0.122012	107.105791	25.788975	-4.627022	0.392173	38.090258	-29.091781	-53.000573	49.628845	16.201217	60.225079	65.734448	61.767200	6.633550	73.679063	58.960589	59.031562	-5.965554	84.253924	67.238436	40.809960	-15.380413	87.460536	72.164093
0.015000	-160.147433	-5.066637	-73.570646	-0.061007	-0.102354	-0.121025	105.473475	25.660429	-3.654454	1.188745	38.105536	-29.101345	-53.795052	51.329144	16.412204	58.201604	66.242886	63.343706	6.550400	72.976236	58.931908	60.705795	-6.035324	84.007261	67.712566	41.788367	-15.375581	86.906616	72.504833
0.025000	-160.147433	-5.066637	-73.570646	-0.060638	-0.098291	-0.120090	104.254300	25.637857	-2.903687	2.102710	37.930983	-28.894275	-54.236727	52.308456	16.504644	56.335303	66.438000	64.147149	6.498991	72.082537	58.718170	61.656518	-6.076101	83.401859	68.011940	42.233708	-15.386582	86.109543	72.666475
0.035000	-160.147433	-5.066637	-73.570646	-0.060337	-0.094592	-0.119297	103.338188	25.650934	-2.242910	2.853594	37.647241	-28.738436	-54.538289	52.768961	16.529443	54.846763	66.401389	64.421159	6.478423	71.205476	58.518265	62.109136	-6.097026	82.743339	68.257393	42.365604	-15.412490	85.414084	72.755068
0.045000	-160.147433	-5.066637	-73.570646	-0.060160	-0.091719	-0.118703	102.617560	25.612484	-1.612886	3.257345	37.326766	-28.875735	-54.916112	52.925934	16.524028	53.832658	66.174671	64.392627	6.477041	70.497024	58.410937	62.258919	-6.106145	82.225428	68.452196	42.315512	-15.438859	85.058347	72.817590
0.055000	-160.147433	-5.066637	-73.570646	-0.060073	-0.089950	-0.118326	102.027420	25.464010	-1.049359	3.276028	37.016024	-29.403324	-55.478987	52.958481	16.514187	53.272477	65.807638	64.225692	6.481118	70.055407	58.397982	62.234653	-6.110121	81.928256	68.562159	42.121306	-15.452868	85.118874	72.876433
0.065000	-160.147433	-5.066637	-73.570646	-0.059983	-0.089284	-0.118143	101.553250	25.205017	-0.640628	3.007625	36.727200	-30.235045	-56.184297	52.974594	16.514493	53.057284	65.379494	64.005713	6.481074	69.913953	58.452234	62.094771	-6.113595	81.843038	68.579666	41.767011	-15.449938	85.510940	72.947161
0.075000	-160.147433	-5.066637	-73.570646	-0.059800	-0.089465	-0.118095	101.207464	24.890184	-0.451793	2.619055	36.439575	-31.160578	-56.876521	53.004989	16.528554	53.036700	64.981835	63.755781	6.473907	70.032608	58.545607	61.852743	-6.118593	81.907771	68.538504	41.239361	-15.432899	86.050682	73.037689
0.085000	-160.147433	-5.066637	-73.570646	-0.059482	-0.090093	-0.118107	100.996610	24.599483	-0.470831	2.264093	36.110093	-31.954982	-57.373318	53.024391	16.551199	53.068775	64.682190	63.469490	6.462140	70.308914	58.656384	61.510240	-6.124672	82.040433	68.489802	40.563706	-15.407844	86.545222	73.141914
0.095000	-160.147433	-5.066637	-73.570646	-0.059048	-0.090783	-0.118108	100.903284	24.401508	-0.611048	2.032438	35.688526	-32.471686	-57.546914	52.982441	16.572744	53.055036	64.497604	63.136346	6.450759	70.611748	58.767769	61.074840	-6.129836	82.164203	68.471023	39.799352	-15.380356	86.862943	73.240109
0.105000	-160.147433	-5.066637	-73.570646	-0.058556	-0.091281	-0.118048	100.890028	24.329314	-0.760647	1.945260	35.131122	-32.680047	-57.365921	52.828352	16.583721	52.952925	64.395438	62.749557	6.444045	70.826060	58.867431	60.557286	-6.131785	82.225899	68.491415	39.006177	-15.353756	86.958570	73.308349
0.115000	-160.147433	-5.066637	-73.570646	-0.058068	-0.091508	-0.117905	100.915982	24.376267	-0.840744	1.979936	34.410114	-32.648203	-56.891496	52.526858	16.578487	52.769381	64.317562	62.304351	6.443800	70.889797	58.949454	59.962449	-6.129025	82.208155	68.536552	38.213476	-15.329352	86.859511	73.330233
0.125000	-160.147433	-5.066637	-73.570646	-0.057619	-0.091526	-0.117690	100.952982	24.508001	-0.835723	2.098000	33.520135	-32.494645	-56.241546	52.069356	16.556823	52.543663	64.210867	61.798959	6.449438	70.807566	59.015394	59.289402	-6.121522	82.131507	68.581570	37.414484	-15.307718	86.634604	73.302771
0.135000	-160.147433	-5.066637	-73.570646	-0.057217	-0.091464	-0.117435	100.992986	24.681341	-0.784375	2.262287	32.482147	-32.334459	-55.542844	51.480051	16.523203	52.325801	64.047543	61.240718	6.459274	70.636276	59.072365	58.542413	-6.110646	82.042259	68.603128	36.586676	-15.289811	86.362126	73.233867
0.145000	-160.147433	-5.066637	-73.570646	-0.056849	-0.091436	-0.117183	101.045496	24.861305	-0.745509	2.443903	31.342585	-32.239087	-54.889225	50.812462	16.484127	52.155710	63.828454	60.650577	6.471819	70.450870	59.129395	57.742418	-6.098422	81.988602	68.586688	35.719795	-15.277143	86.104304	73.135603
0.155000	-160.147433	-5.066637	-73.570646	-0.056501	-0.091496	-0.116972	101.128137	25.030479	-0.762560	2.624832	30.164506	-32.220337	-54.319355	50.133974	16.444850	52.049026	63.573634	60.059465	6.486227	70.308071	59.194439	56.927772	-6.086465	81.996175	68.529760	34.831248	-15.270986	85.891610	73.019416
0.165000	-160.147433	-5.066637	-73.570646	-0.056164	-0.091631	-0.116820	101.255619	25.189063	-0.845786	2.798834	29.010808	-32.241128	-53.820109	49.503340	16.407324	51.995453	63.308795	59.497053	6.501903	70.226558	59.272617	56.141875	-6.075313	82.057109	68.441455	33.959876	-15.271248	85.720512	72.895353
0.175000	-160.147433	-5.066637	-73.570646	-0.055842	-0.091790	-0.116726	101.431847	25.347544	-0.975916	2.969512	27.925404	-32.245235	-53.350978	48.951729	16.370569	51.969852	63.055313	58.980165	6.517931	70.191093	59.364624	55.415606	-6.064616	82.138595	68.338130	33.144900	-15.275818	85.565561	72.772949
0.185000	-160.147433	-5.066637	-73.570646	-0.055540	-0.091919	-0.116671	101.647705	25.516434	-1.120584	3.144954	26.921851	-32.189799	-52.875356	48.476951	16.333154	51.948212	62.827172	58.508745	6.532883	70.172590	59.465272	54.756592	-6.054018	82.203553	68.236673	32.406407	-15.280950	85.399143	72.660793
0.195000	-160.147433	-5.066637	-73.570646	-0.055264	-0.091990	-0.116634	101.884210	25.698105	-1.251262	3.331252	25.986143	-32.064440	-52.382462	48.052669	16.296056	51.917980	62.634430	58.071601	6.545135	70.148203	59.564069	54.152239	-6.043964	82.228981	68.148820	31.740497	-15.282710	85.207460	72.564388
0.205000	-160.147433	-5.066637	-73.570646	-0.055015	-0.092002	-0.116600	102.118926	25.884429	-1.352680	3.528534	25.091936	-31.890240	-51.890595	47.645688	16.263800	51.878135	62.488967	57.657107	6.553426	70.110075	59.649085	53.583494	-6.035716	82.212168	68.078960	31.129688	-15.278825	84.994924	72.483831
0.215000	-160.147433	-5.066637	-73.570646	-0.054791	-0.091975	-0.116563	102.333090	26.060827	-1.423707	3.731303	24.218485	-31.703626	-51.433637	47.231698	16.242755	51.832715	62.406172	57.261429	6.557352	70.062003	59.712637	53.039625	-6.030517	82.164917	68.025438	30.558617	-15.269906	84.777202	72.413254
0.225000	-160.147433	-5.066637	-73.570646	-0.054585	-0.091937	-0.116525	102.517190	26.213834	-1.473180	3.932076	23.360509	-31.536670	-51.041211	46.803781	16.237389	51.784392	62.398846	56.890094	6.557613	70.010381	59.755626	52.525209	-6.028567	82.102286	67.984081	30.024032	-15.259281	84.569012	72.343655
